<?xml version="1.0" encoding="UTF-8" standalone="no"?>
<svg width="1200" height="800" viewBox="0 0 1200 800" xmlns="http://www.w3.org/2000/svg">
  <defs>
    <!-- Brand Gradient -->
    <linearGradient id="brand-grad" x1="0%" y1="0%" x2="100%" y2="100%">
      <stop offset="0%" stop-color="#03045E" />
      <stop offset="60%" stop-color="#023E8A" />
      <stop offset="100%" stop-color="#0077B6" />
    </linearGradient>
    
    <!-- Accent Glow -->
    <radialGradient id="accent-glow" cx="80%" cy="20%" r="60%">
      <stop offset="0%" stop-color="#00B4D8" stop-opacity="0.25" />
      <stop offset="100%" stop-color="#03045E" stop-opacity="0" />
    </radialGradient>

    <!-- Card Pill Gradient -->
    <linearGradient id="pill-grad" x1="0%" y1="0%" x2="100%" y2="0%">
      <stop offset="0%" stop-color="#CAF0F8" />
      <stop offset="100%" stop-color="#90E0EF" />
    </linearGradient>
  </defs>

  <!-- Background -->
  <rect width="1200" height="800" fill="url(#brand-grad)" />
  <rect width="1200" height="800" fill="url(#accent-glow)" />

  <!-- Premium Geometric Decorative Waves -->
  <path d="M -100 700 C 300 600, 400 850, 900 650 C 1100 570, 1200 700, 1300 680 L 1300 900 L -100 900 Z" fill="#0077B6" opacity="0.1" />
  <path d="M -100 750 C 200 680, 500 820, 800 720 C 1000 650, 1150 780, 1300 760 L 1300 900 L -100 900 Z" fill="#0096C7" opacity="0.15" />

  <!-- Tech/Clinical Grid Overlay (Subtle) -->
  <g opacity="0.05">
    <line x1="100" y1="0" x2="100" y2="800" stroke="#FFFFFF" stroke-width="2" stroke-dasharray="10 15" />
    <line x1="200" y1="0" x2="200" y2="800" stroke="#FFFFFF" stroke-width="2" stroke-dasharray="10 15" />
    <line x1="300" y1="0" x2="300" y2="800" stroke="#FFFFFF" stroke-width="2" stroke-dasharray="10 15" />
    <line x1="400" y1="0" x2="400" y2="800" stroke="#FFFFFF" stroke-width="2" stroke-dasharray="10 15" />
    <line x1="500" y1="0" x2="500" y2="800" stroke="#FFFFFF" stroke-width="2" stroke-dasharray="10 15" />
    <line x1="600" y1="0" x2="600" y2="800" stroke="#FFFFFF" stroke-width="2" stroke-dasharray="10 15" />
    <line x1="700" y1="0" x2="700" y2="800" stroke="#FFFFFF" stroke-width="2" stroke-dasharray="10 15" />
    <line x1="800" y1="0" x2="800" y2="800" stroke="#FFFFFF" stroke-width="2" stroke-dasharray="10 15" />
    <line x1="900" y1="0" x2="900" y2="800" stroke="#FFFFFF" stroke-width="2" stroke-dasharray="10 15" />
    <line x1="1000" y1="0" x2="1000" y2="800" stroke="#FFFFFF" stroke-width="2" stroke-dasharray="10 15" />
    <line x1="1100" y1="0" x2="1100" y2="800" stroke="#FFFFFF" stroke-width="2" stroke-dasharray="10 15" />

    <line x1="0" y1="100" x2="1200" y2="100" stroke="#FFFFFF" stroke-width="2" stroke-dasharray="10 15" />
    <line x1="0" y1="200" x2="1200" y2="200" stroke="#FFFFFF" stroke-width="2" stroke-dasharray="10 15" />
    <line x1="0" y1="300" x2="1200" y2="300" stroke="#FFFFFF" stroke-width="2" stroke-dasharray="10 15" />
    <line x1="0" y1="400" x2="1200" y2="400" stroke="#FFFFFF" stroke-width="2" stroke-dasharray="10 15" />
    <line x1="0" y1="500" x2="1200" y2="500" stroke="#FFFFFF" stroke-width="2" stroke-dasharray="10 15" />
    <line x1="0" y1="600" x2="1200" y2="600" stroke="#FFFFFF" stroke-width="2" stroke-dasharray="10 15" />
    <line x1="0" y1="700" x2="1200" y2="700" stroke="#FFFFFF" stroke-width="2" stroke-dasharray="10 15" />
  </g>

  <!-- Large Dental Watermark Icon (Right Side) -->
  <g transform="translate(850, 400) scale(3.5)" opacity="0.12">
    <!-- Stylized Tooth Outline -->
    <path d="M0 -70 C-35 -70 -42 -45 -42 -10 C-42 25 -30 60 -25 68 C-22 72 -17 68 -14 60 C-10 48 -5 35 0 35 C5 35 10 48 14 60 C17 68 22 72 25 68 C30 60 42 25 42 -10 C42 -45 35 -70 0 -70 Z" fill="none" stroke="#FFFFFF" stroke-width="5" stroke-linejoin="round" />
    <!-- Sparkles/Clean shine -->
    <path d="M-60 -40 L-55 -43 L-52 -50 L-49 -43 L-44 -40 L-49 -37 L-52 -30 L-55 -37 Z" fill="#00B4D8" />
    <path d="M50 -55 L53 -57 L55 -62 L57 -57 L62 -55 L57 -53 L55 -48 L53 -53 Z" fill="#00B4D8" />
  </g>

  <!-- Category Badge Pill -->
  <g transform="translate(100, 140)">
    <rect width="260" height="48" rx="24" fill="url(#pill-grad)" />
    <text x="130" y="30" font-family="'Poppins', 'Segoe UI', sans-serif" font-size="18" font-weight="700" fill="#023E8A" letter-spacing="1.5" text-anchor="middle">TREATMENT GUIDES</text>
  </g>

  <!-- Blog Title (Multi-line) -->
  <text font-family="'Poppins', 'Segoe UI', sans-serif" font-size="56" font-weight="700" fill="#FFFFFF" letter-spacing="-0.5">
    <tspan x="100" y="255">A Complete Guide to</tspan><tspan x="100" y="320">Dental Implants:</tspan><tspan x="100" y="385">Procedure &amp; Recovery</tspan>
  </text>

  <!-- Clinic Branding Divider -->
  <line x1="100" y1="620" x2="1100" y2="620" stroke="#FFFFFF" stroke-width="1.5" opacity="0.2" />

  <!-- Clinic Logo & Tagline at bottom -->
  <g transform="translate(100, 680)">
    <!-- Small Tooth Logo Mark -->
    <path d="M0 -15 C-8 -15 -10 -10 -10 -2 C-10 5 -7 13 -6 15 C-5 16 -4 15 -3 13 C-2 10 -1 8 0 8 C1 8 2 10 3 13 C4 15 5 16 6 15 C7 13 10 5 10 -2 C10 -10 8 -15 0 -15 Z" fill="#00B4D8" />
    <text x="25" y="5" font-family="'Poppins', 'Segoe UI', sans-serif" font-size="24" font-weight="700" fill="#FFFFFF" letter-spacing="0.5">APEX DENTAL</text>
    <text x="25" y="25" font-family="'Poppins', 'Segoe UI', sans-serif" font-size="12" font-weight="600" fill="#90E0EF" letter-spacing="2">HOSPITAL</text>
    
    <!-- Tagline on the right -->
    <text x="900" y="10" font-family="'Poppins', 'Segoe UI', sans-serif" font-size="14" font-weight="500" fill="#90E0EF" letter-spacing="1.5" text-anchor="end">BRINGING LIFE TO YOUR SMILE</text>
  </g>
</svg>